<svg width="40" height="40" viewBox="0 0 40 40" fill="none" xmlns="http://www.w3.org/2000/svg">
  <rect width="40" height="40" rx="10" fill="#1677FF"/>
  <path d="M9 12H19.2C24.2 12 27.2 14.3 27.2 17.8C27.2 19.8 26.1 21.4 24.1 22.3C26.8 23 28.4 24.8 28.4 27.2C28.4 31 25.2 33 19.9 33H9V12ZM18.7 20.5C21.3 20.5 22.7 19.5 22.7 17.9C22.7 16.2 21.3 15.4 18.7 15.4H13.5V20.5H18.7ZM19.3 29.6C22.2 29.6 23.8 28.6 23.8 26.8C23.8 24.9 22.2 23.9 19.3 23.9H13.5V29.6H19.3Z" fill="white"/>
  <path d="M30.5 12H33V33H30.5V12Z" fill="#FF554D"/>
</svg>
