<svg width="40" height="40" viewBox="0 0 40 40" fill="none" xmlns="http://www.w3.org/2000/svg">
  <rect width="40" height="40" rx="10" fill="#1769E0"/>
  <path d="M10 11.5H20.4C25.1 11.5 28 13.8 28 17.2C28 19.3 26.8 20.9 24.8 21.8C27.4 22.5 29 24.3 29 26.8C29 30.7 25.8 33 20.5 33H10V11.5ZM19.8 20.2C22.3 20.2 23.7 19.2 23.7 17.5C23.7 15.8 22.3 14.9 19.8 14.9H14.4V20.2H19.8ZM20.2 29.5C23.1 29.5 24.6 28.5 24.6 26.5C24.6 24.6 23 23.6 20.2 23.6H14.4V29.5H20.2Z" fill="white"/>
  <path d="M30.4 12.4H33.2V19.4H30.4V12.4ZM30.4 21.4H33.2V28.4H30.4V21.4Z" fill="#74D2FF"/>
</svg>
