<svg xmlns="http://www.w3.org/2000/svg" viewBox="0 0 180 150" role="img" aria-label="PPU">
  <path d="M5 92C5 38 62 4 119 5c42 1 65 24 55 70-10 45-55 72-103 69C30 141 5 120 5 92Z" fill="#fff" stroke="#050505" stroke-width="7"/>
  <path d="M34 76c10-6 19-11 24-20 9-30 37-31 64-26 18 3 28 14 31 32l10 52c-21 22-54 33-92 30l9-36c-9-9-22-8-37 0L19 89l-5-21c6-3 13-7 20-12Z" fill="#050505"/>
  <path d="M70 57h77c-5-17-18-23-39-24-21-1-33 6-38 24Z" fill="#fff"/>
  <path d="M72 68h45L96 88Z" fill="#fff"/>
</svg>
